<?xml version="1.0" encoding="iso-8859-1"?>
<!-- Generator: Adobe Illustrator 19.0.0, SVG Export Plug-In . SVG Version: 6.00 Build 0)  -->
<svg version="1.1" id="Layer_1" xmlns="http://www.w3.org/2000/svg" xmlns:xlink="http://www.w3.org/1999/xlink" x="0px" y="0px"
	 viewBox="0 0 393.632 393.632" style="enable-background:new 0 0 393.632 393.632;" xml:space="preserve">
<path style="fill:#0090FF;" d="M337.196,257.067c-15.451-15.451-40.598-15.451-56.307,0l0,0c-15.451,15.451-40.598,15.451-56.307,0
	l0,0c-15.451-15.451-40.598-15.451-56.307,0l0,0c-15.451,15.451-40.598,15.451-56.307,0l0,0c-15.451-15.451-40.598-15.451-56.307,0
	l0,0c-11.766,11.766-29.349,14.675-43.766,8.404C39.693,340.137,111.709,393.6,196.331,393.6s156.444-53.204,184.436-128.129
	C366.545,271.741,349.285,268.897,337.196,257.067z"/>
<path style="fill:#8FD7FF;" d="M196.784,0.032C88.048,0.032,0,88.081,0,196.816c0,24.113,4.461,47.192,12.283,68.655
	c14.416,6.271,31.935,3.426,43.766-8.404l0,0c15.451-15.451,40.598-15.451,56.307,0l0,0c15.451,15.451,40.598,15.451,56.307,0l0,0
	c15.451-15.451,40.598-15.451,56.307,0l0,0c15.451,15.451,40.598,15.451,56.307,0l0,0c15.451-15.451,40.598-15.451,56.307,0
	c11.766,11.766,29.35,14.675,43.766,8.404c7.887-21.463,12.283-44.541,12.283-68.655C393.568,88.081,305.519,0.032,196.784,0.032z"
	/>
<path style="fill:#FCFCFD;" d="M270.158,50.069c-21.98,0-39.822,17.842-39.822,39.822v37.754h-85.721V90.149
	c0-11.766,9.697-21.463,21.463-21.463c11.766,0,21.463,9.697,21.463,21.463v10.99h18.36v-10.99c0-21.98-17.842-39.822-39.822-39.822
	s-39.758,17.842-39.758,39.822v172.929h18.36V205.22h85.915v57.923h18.36V90.149c0-11.766,9.697-21.463,21.463-21.463
	c11.766,0,21.463,9.697,21.463,21.463v10.99h18.36v-10.99C310.238,68.17,292.137,50.069,270.158,50.069z M144.614,186.861v-40.598
	h85.915v40.598H144.614z"/>
<g>
	<path style="fill:#48B5FF;" d="M365.511,259.717c-8.145,0-15.709-3.168-21.721-8.921c-19.135-19.135-50.036-19.135-69.172,0
		c-5.754,5.754-13.382,8.921-21.721,8.921c-8.145,0-15.709-3.168-21.721-8.921c-19.135-19.135-50.036-19.135-69.172,0
		c-5.754,5.754-13.382,8.921-21.721,8.921c-8.404,0-15.709-3.168-21.721-8.921c-19.135-19.135-50.036-19.135-69.172,0
		c-5.754,5.754-13.382,8.921-21.721,8.921c-7.628,0-14.675-2.651-20.17-7.628c2.327,8.404,5.495,16.743,8.921,24.63
		c15.968,3.685,33.293-0.517,45.834-12.865c5.754-5.754,13.382-8.921,21.721-8.921c8.145,0,15.709,3.168,21.721,8.921
		c9.18,9.18,21.463,14.416,34.586,14.416s25.406-4.978,34.586-14.416c5.754-5.754,13.382-8.921,21.721-8.921
		c8.145,0,15.709,3.168,21.721,8.921c9.18,9.18,21.463,14.416,34.586,14.416c13.123,0,25.406-4.978,34.586-14.416
		c12.024-12.024,31.418-11.766,43.248,0c9.18,9.18,21.463,14.416,34.586,14.416l0,0c3.943,0,7.628-0.517,11.249-1.293
		c3.685-7.887,6.529-16.226,8.921-24.63C379.927,256.808,372.881,259.717,365.511,259.717z"/>
	<path style="fill:#48B5FF;" d="M361.826,304c-6.788-0.776-13.123-3.943-18.101-8.663c-19.135-19.135-50.036-19.135-69.172,0
		c-5.754,5.754-13.382,8.921-21.721,8.921c-8.145,0-15.709-3.168-21.721-8.921c-19.135-19.135-50.036-19.135-69.172,0
		c-5.754,5.754-13.382,8.921-21.721,8.921c-8.339,0-15.709-3.168-21.721-8.921c-19.135-19.135-50.036-19.135-69.172,0
		c-4.978,4.978-11.248,7.887-18.101,8.663c3.685,5.495,7.628,10.99,11.507,15.968c7.046-2.327,13.64-6.271,19.394-11.766
		c11.766-11.766,31.418-11.766,43.248,0c19.135,19.135,50.036,19.135,69.172,0c5.754-5.754,13.382-8.921,21.721-8.921
		c8.145,0,15.709,3.168,21.721,8.921c9.18,9.18,21.463,14.416,34.586,14.416s25.406-4.978,34.586-14.416
		c12.024-11.766,31.418-11.766,43.249,0c5.495,5.495,12.024,9.438,19.394,11.766C354.263,314.731,358.206,309.495,361.826,304z"/>
</g>
<g>
</g>
<g>
</g>
<g>
</g>
<g>
</g>
<g>
</g>
<g>
</g>
<g>
</g>
<g>
</g>
<g>
</g>
<g>
</g>
<g>
</g>
<g>
</g>
<g>
</g>
<g>
</g>
<g>
</g>
</svg>
